<?xml version="1.0" encoding="utf-8"?>
<!-- Generator: Adobe Illustrator 18.0.0, SVG Export Plug-In . SVG Version: 6.00 Build 0)  -->
<!DOCTYPE svg PUBLIC "-//W3C//DTD SVG 1.1//EN" "http://www.w3.org/Graphics/SVG/1.1/DTD/svg11.dtd">
<svg version="1.1" id="Layer_1" xmlns="http://www.w3.org/2000/svg" xmlns:xlink="http://www.w3.org/1999/xlink" x="0px" y="0px"
	 viewBox="0 0 243 66.1" enable-background="new 0 0 243 66.1" xml:space="preserve">
<g>
	<g>
		<path fill="#AD233B" d="M-0.2,33c0,13.6,9,25.3,21.8,30.1l0,0c5.3,1.8,11.3,3,17.5,3s11.9-0.9,17.2-2.8l0,0
			c12.9-4.8,22-16.5,22-30.1l0,0c0-13.6-9.2-25.3-22-30.1l0,0C51.2,0.9,45.2,0,39,0s-12.2,0.9-17.5,3l0,0C8.7,7.8-0.2,19.3-0.2,33
			L-0.2,33z"/>
		<path fill="#FFFFFF" d="M35.4,36c-8.7,1.4-15.6,8.7-16.1,17.7h7.1c0.2-5.3,4.1-9.9,9.2-11.3v12.6h7.1V42.4
			c5.1,1.4,8.7,5.7,9.2,11.3H59c-0.5-9-7.3-16.3-16.1-17.7v-5.7c8.7-1.4,15.6-8.7,16.1-17.7h-7.1c-0.2,5.3-4.1,9.9-9.2,11.3V10.8
			h-7.1v12.6c-5.1-1.4-8.7-5.7-9.2-11.3h-7.1c0.5,9,7.3,16.3,16.1,17.7V36z"/>
	</g>
	<g>
		<path fill="#10274A" d="M148.6,12.4v5.7h14.9v37h13.3v-37c0,0,10.1,0,10.3,0c6,0,6.4-5.7,6.4-5.7H148.6z"/>
		<path fill="#10274A" d="M136.6,12.4c-4.8,0-6.9,2.5-8.3,5.1l-10.8,23.2h-0.2l-12.9-28.2H91.2v42.7h7.3V24.8L113,55.1h5.3l14-30.1
			v30.1h11.5l0,0l0,0V12.4H136.6z"/>
		<path fill="#10274A" d="M228.5,34.9c6-1.6,9.6-5.7,9.6-10.6c0-7.3-6.7-11.7-18.8-11.7h-22v42.5h12.9v-37h6.2
			c7.3,0,9.2,2.5,9.4,5.7c0.2,2.8-3,6.2-6.9,6.9l0,0c-1.1,0.2-3,0.7-5.1,0.9c0,0-0.5,0-0.2,0.5c3.9,6.9,12.9,19.3,12.9,19.3
			c1.8,1.6,2.5,3.4,7.6,3.4h8.7C243.2,55.1,233.6,43.1,228.5,34.9z"/>
	</g>
</g>
</svg>
